<?xml version="1.0" encoding="utf-8"?>
<!-- Generator: Adobe Illustrator 15.0.0, SVG Export Plug-In . SVG Version: 6.00 Build 0)  -->
<!DOCTYPE svg PUBLIC "-//W3C//DTD SVG 1.1//EN" "http://www.w3.org/Graphics/SVG/1.1/DTD/svg11.dtd">
<svg version="1.1" id="Layer_1" xmlns="http://www.w3.org/2000/svg" xmlns:xlink="http://www.w3.org/1999/xlink" x="0px" y="0px"
	 width="126.453px" height="93.103px" viewBox="6.254 76.929 126.453 93.103" enable-background="new 6.254 76.929 126.453 93.103"
	 xml:space="preserve">
<g>
	<path fill="#FFFFFF" d="M123.674,76.929H15.286c-4.988,0-9.032,4.044-9.032,9.033s4.044,9.032,9.032,9.032h108.389
		c4.989,0,9.032-4.043,9.032-9.032S128.664,76.929,123.674,76.929z"/>
	<path fill="#FFFFFF" d="M123.674,114.448H15.286c-4.988,0-9.032,4.043-9.032,9.032s4.044,9.033,9.032,9.033h108.389
		c4.989,0,9.032-4.044,9.032-9.033S128.664,114.448,123.674,114.448z"/>
	<path fill="#FFFFFF" d="M132.707,161c0-4.988-4.043-9.032-9.032-9.032H15.286c-4.988,0-9.032,4.044-9.032,9.032
		c0,4.989,4.044,9.032,9.032,9.032h108.389C128.664,170.032,132.707,165.989,132.707,161z"/>
</g>
</svg>
