<?xml version="1.0" encoding="utf-8"?>
<!-- Generator: Adobe Illustrator 15.0.0, SVG Export Plug-In . SVG Version: 6.00 Build 0)  -->
<!DOCTYPE svg PUBLIC "-//W3C//DTD SVG 1.1//EN" "http://www.w3.org/Graphics/SVG/1.1/DTD/svg11.dtd">
<svg version="1.1" id="Layer_1" xmlns="http://www.w3.org/2000/svg" xmlns:xlink="http://www.w3.org/1999/xlink" x="0px" y="0px"
	 width="126.453px" height="93.104px" viewBox="0 0 126.453 93.104" enable-background="new 0 0 126.453 93.104"
	 xml:space="preserve">
<g>
	<path fill="#C8C8C8" d="M117.42,0H9.032C4.044,0,0,4.044,0,9.032c0,4.989,4.044,9.032,9.032,9.032h108.389
		c4.989,0,9.032-4.043,9.032-9.032C126.453,4.044,122.41,0,117.42,0z"/>
	<path fill="#C8C8C8" d="M117.42,37.519H9.032C4.044,37.519,0,41.562,0,46.551c0,4.989,4.044,9.034,9.032,9.034h108.389
		c4.989,0,9.032-4.045,9.032-9.034C126.453,41.562,122.41,37.519,117.42,37.519z"/>
	<path fill="#C8C8C8" d="M126.453,84.071c0-4.988-4.043-9.031-9.032-9.031H9.032C4.044,75.04,0,79.083,0,84.071
		s4.044,9.031,9.032,9.031h108.389C122.41,93.102,126.453,89.059,126.453,84.071z"/>
</g>
</svg>
