<?xml version="1.0" encoding="utf-8"?>
<!-- Generator: Adobe Illustrator 15.0.0, SVG Export Plug-In . SVG Version: 6.00 Build 0)  -->
<!DOCTYPE svg PUBLIC "-//W3C//DTD SVG 1.1//EN" "http://www.w3.org/Graphics/SVG/1.1/DTD/svg11.dtd">
<svg version="1.1" id="Layer_1" xmlns="http://www.w3.org/2000/svg" xmlns:xlink="http://www.w3.org/1999/xlink" x="0px" y="0px"
	 width="120.061px" height="120.061px" viewBox="0 0 120.061 120.061" enable-background="new 0 0 120.061 120.061"
	 xml:space="preserve">
<g>
	<path fill="#5D75C5" d="M40.864,115.06c0,2.75-2.025,5-4.5,5s-4.5-2.25-4.5-5V5c0-2.75,2.025-5,4.5-5s4.5,2.25,4.5,5V115.06z
		 M64.531,5c0-2.75-2.025-5-4.5-5c-2.475,0-4.5,2.25-4.5,5v110.06c0,2.75,2.025,5,4.5,5c2.475,0,4.5-2.25,4.5-5V5z M88.198,5
		c0-2.75-2.025-5-4.5-5s-4.5,2.25-4.5,5v110.06c0,2.75,2.025,5,4.5,5s4.5-2.25,4.5-5V5z"/>
</g>
</svg>
